<?xml version="1.0" encoding="UTF-8" standalone="no"?>
<!-- Created with Inkscape (http://www.inkscape.org/) -->

<svg
   width="118.78844"
   height="100.612"
   viewBox="0 0 118.78844 100.612"
   version="1.1"
   id="svg5"
   inkscape:version="1.1.2 (b8e25be833, 2022-02-05)"
   sodipodi:docname="telegram.svg"
   xmlns:inkscape="http://www.inkscape.org/namespaces/inkscape"
   xmlns:sodipodi="http://sodipodi.sourceforge.net/DTD/sodipodi-0.dtd"
   xmlns="http://www.w3.org/2000/svg"
   xmlns:svg="http://www.w3.org/2000/svg">
  <sodipodi:namedview
     id="namedview7"
     pagecolor="#505050"
     bordercolor="#ffffff"
     borderopacity="1"
     inkscape:pageshadow="0"
     inkscape:pageopacity="0"
     inkscape:pagecheckerboard="1"
     inkscape:document-units="px"
     showgrid="false"
     fit-margin-top="0"
     fit-margin-left="0"
     fit-margin-right="0"
     fit-margin-bottom="0"
     inkscape:zoom="1.5291184"
     inkscape:cx="-54.606628"
     inkscape:cy="40.546239"
     inkscape:window-width="1366"
     inkscape:window-height="705"
     inkscape:window-x="-8"
     inkscape:window-y="-8"
     inkscape:window-maximized="1"
     inkscape:current-layer="layer1" />
  <defs
     id="defs2" />
  <g
     inkscape:label="Capa 1"
     inkscape:groupmode="layer"
     id="layer1"
     transform="translate(-1.217506,-14.142558)">
    <path
       style="fill:#000000;stroke-width:1.37971"
       d="M 77.322927,102.72946 C 56.76322,88.663418 53.545538,85.884158 53.545538,82.191847 c 0,-1.663999 7.490072,-10.176823 19.285175,-21.918541 C 84.423018,48.73347 91.512568,40.691195 90.603434,40.112212 89.771595,39.58245 77.882225,46.822609 64.182623,56.201459 50.483021,65.580301 37.313725,73.878196 34.917521,74.641233 31.500303,75.729379 28.027962,75.327167 18.815573,72.776086 12.355711,70.987213 5.7534766,68.407489 4.143934,67.043349 L 1.217506,64.563092 3.9358448,61.722585 C 6.6278301,58.909627 87.129601,22.718745 103.50043,16.961706 c 15.27952,-5.373262 17.45825,-3.84019 16.20636,11.403664 -1.18364,14.412938 -11.67545,77.98892 -13.44144,81.44941 -4.05053,7.93713 -8.619719,6.81857 -28.942423,-7.08532 z"
       id="path874"
       sodipodi:nodetypes="sssssssscsssss" />
  </g>
</svg>
