<?xml version="1.0" encoding="UTF-8" standalone="no"?>
<!-- Created with Inkscape (http://www.inkscape.org/) -->

<svg
   width="659.91162"
   height="152.54507"
   viewBox="0 0 659.91162 152.54507"
   version="1.1"
   id="svg5"
   inkscape:version="1.1.2 (b8e25be833, 2022-02-05)"
   sodipodi:docname="uThemes.svg"
   xmlns:inkscape="http://www.inkscape.org/namespaces/inkscape"
   xmlns:sodipodi="http://sodipodi.sourceforge.net/DTD/sodipodi-0.dtd"
   xmlns="http://www.w3.org/2000/svg"
   xmlns:svg="http://www.w3.org/2000/svg">
  <sodipodi:namedview
     id="namedview7"
     pagecolor="#505050"
     bordercolor="#ffffff"
     borderopacity="1"
     inkscape:pageshadow="0"
     inkscape:pageopacity="0"
     inkscape:pagecheckerboard="1"
     inkscape:document-units="px"
     showgrid="false"
     fit-margin-top="0"
     fit-margin-left="0"
     fit-margin-right="0"
     fit-margin-bottom="0"
     inkscape:zoom="0.70710678"
     inkscape:cx="301.93459"
     inkscape:cy="62.225396"
     inkscape:window-width="1366"
     inkscape:window-height="705"
     inkscape:window-x="-8"
     inkscape:window-y="-8"
     inkscape:window-maximized="1"
     inkscape:current-layer="layer1" />
  <defs
     id="defs2" />
  <g
     inkscape:label="Capa 1"
     inkscape:groupmode="layer"
     id="layer1"
     transform="translate(420.9655,6.1895265)">
    <path
       style="fill:#000000"
       id="path876"
       d="" />
    <path
       style="fill:#000000"
       id="path856"
       d="" />
    <path
       style="fill:#000000"
       id="path836"
       d="" />
    <path
       style="fill:#ffffff"
       d="m -360.54878,144.66252 c -22.61185,-4.78779 -42.55169,-20.13803 -52.51339,-40.42628 -6.3095,-12.850066 -7.89861,-19.713166 -7.90332,-34.133206 -0.005,-14.24106 2.21406,-23.46085 8.59931,-35.7341 5.09107,-9.78568 15.79804,-21.46788 25.47796,-27.7985796 35.6831,-23.3368804 82.68543,-13.825 107.16503,21.6870496 1.19593,1.7349 2.17441,3.4224 2.17441,3.75 0,0.32759 -2.7,0.59563 -6,0.59563 -6.77932,0 -6.26842,-1.97643 -6.00454,23.22877 0.0618,5.90083 -0.20609,14.65294 -0.59525,19.44914 -0.94934,11.70016 -2.44671,13.32209 -12.29899,13.32209 -5.94539,0 -7.40889,-0.36035 -9.79546,-2.41191 -2.80576,-2.4119 -2.80576,-2.4119 -3.10386,-28 -0.29811,-25.58809 -0.29811,-25.58809 -12.75,-25.58809 -12.4519,0 -12.4519,0 -12.4519,23.86351 0,13.12493 0.4567,26.27171 1.0149,29.21505 3.18228,16.780086 11.71284,21.873846 36.68588,21.905816 12.53329,0.0161 20.68546,-1.14816 25.59462,-3.65515 2.79541,-1.42755 2.79541,-1.42755 0.84406,2.3974 -1.07323,2.10372 -4.01487,6.57005 -6.53696,9.92517 -17.59232,23.40295 -48.24486,34.62383 -77.6025,28.40769 z m 112.72123,-38.41516 c -5.19913,-1.4685 -8.98141,-4.4588 -11.56624,-9.144336 -1.4502,-2.62878 -1.69416,-8.16612 -1.97154,-44.74999 -0.31656,-41.75 -0.31656,-41.75 12.25,-41.75 12.56655,0 12.56655,0 12.56655,11 0,12.31259 -1.56163,11.39578 18.75,11.00787 7.25,-0.13846 7.25,-0.13846 7.25,8.9063 0,9.04476 0,9.04476 -11.25,9.00731 -6.1875,-0.0206 -12.0375,-0.0113 -13,0.0205 -1.6008,0.053 -1.75,1.61816 -1.75,18.35798 0,12.9 0.3541,18.6541 1.2,19.5 0.66,0.66 2.89417,1.2 4.96482,1.2 4.54282,1e-5 5.83518,-1.86798 5.83518,-8.43425 0,-4.56574 0,-4.56574 10.1038,-4.56574 10.10381,0 10.10381,0 9.54276,7.48435 -1.00888,13.45842 -3.67913,18.626126 -11.14656,21.571826 -4.58025,1.80677 -26.05706,2.20426 -31.77877,0.58815 z m 149.778774,0.0105 c -9.303214,-2.41187 -14.987544,-6.788116 -17.912614,-13.790566 -4.49162,-10.75265 -4.07736,-36.74574 0.7538,-47.29839 4.67218,-10.20538 15.725934,-14.19877 36.658814,-13.24376 17.47544,0.79727 24.448229,4.04665 28.723689,13.38548 3.1791,6.94406 5.35136,24.29209 3.34455,26.71015 -1.12943,1.36088 -4.60287,1.58222 -24.829569,1.58222 -23.51645,0 -23.51645,0 -22.95074,6.23867 0.78476,8.65447 3.24089,10.76132 12.54533,10.76132 7.48866,0 10.56205,-1.45459 11.57153,-5.47666 0.63331,-2.52333 0.63331,-2.52333 12.70216,-2.52333 12.068849,0 12.068849,0 11.403469,4.25 -1.5271,9.75407 -6.80006,16.206596 -15.392789,18.836146 -5.60063,1.71393 -30.69684,2.10369 -36.61763,0.56872 z m 27.5,-49.200326 c 0,-5.6808 -3.52174,-8.45781 -10.70455,-8.44089 -3.1875,0.008 -6.82597,0.28971 -8.0855,0.6271 -2.62623,0.70351 -5.20995,5.07235 -5.20995,8.80959 0,2.54966 0,2.54966 12,2.54966 12,0 12,0 12,-3.54546 z M 109.45122,106.91213 c -11.146367,-1.86582 -17.781707,-6.60728 -21.158657,-15.119436 -2.00451,-5.0527 -2.2613,-7.48086 -2.29377,-21.68966 -0.0388,-16.96267 0.77556,-21.71593 4.7241,-27.57517 5.40461,-8.0199 12.354977,-10.32714 31.228327,-10.36653 14.87119,-0.031 19.91404,0.89833 25.57516,4.71337 7.36142,4.96085 10.25437,12.42685 10.3568,26.72833 0.068,9.5 0.068,9.5 -24.30839,9.76807 -24.37644,0.26806 -24.37644,0.26806 -23.71022,5.29026 1.30781,9.85874 3.66235,11.94166 13.49884,11.94166 6.43183,0 11.08781,-2.54998 11.08781,-6.07257 0,-1.79738 0.81904,-1.92742 12.13929,-1.92742 12.13929,0 12.13929,0 11.53569,5.09651 -1.18684,10.02098 -7.16136,16.052866 -18.22062,18.395586 -6.39174,1.35398 -24.36602,1.8362 -30.45436,0.81704 z m 24.56561,-50.059096 c -1.04073,-5.94047 -4.41842,-8.25 -12.06561,-8.25 -7.62548,0 -10.94148,2.28855 -11.95382,8.25 -0.63681,3.75 -0.63681,3.75 12.0198,3.75 12.6566,0 12.6566,0 11.99963,-3.75 z m 47.10186,49.316126 c -2.65789,-0.71438 -6.03289,-2.18637 -7.5,-3.27109 -3.59694,-2.65942 -6.79769,-8.771896 -7.6164,-14.545036 -0.67362,-4.75 -0.67362,-4.75 11.76266,-4.75 12.43627,0 12.43627,0 13.02539,2.94562 0.32402,1.62008 1.61777,3.51263 2.875,4.20565 2.88233,1.58884 18.39046,1.42178 20.36798,-0.21941 2.13762,-1.77407 1.79431,-8.28124 -0.54879,-10.40171 -1.60633,-1.45371 -4.73398,-1.9235 -17.06926,-2.56389 -13.74588,-0.71363 -15.61287,-1.03928 -20.78331,-3.62516 -7.51677,-3.75935 -9.65006,-7.84629 -9.57364,-18.3411 0.089,-12.22042 3.96124,-18.56659 13.3929,-21.94944 4.88234,-1.75115 31.07658,-2.54272 38.44182,-1.16168 11.84126,2.22032 16.59296,6.48534 17.3463,15.56964 0.45954,5.54148 0.45954,5.54148 -11.16429,5.54148 -9.07032,0 -11.62383,-0.29547 -11.62383,-1.34502 0,-3.22129 -3.5094,-4.65498 -11.39448,-4.65498 -4.25535,0 -8.60742,0.46583 -9.67126,1.03518 -2.40351,1.28632 -2.64178,7.13274 -0.36762,9.02013 0.96508,0.80095 6.43681,1.61381 14.25,2.11695 28.89728,1.86084 33.66738,5.09411 33.67818,22.82774 0.005,7.41976 -0.33479,9.07829 -2.66996,13.05032 -3.21678,5.471646 -9.61971,9.281126 -18.25852,10.863086 -8.05731,1.47547 -30.91773,1.26031 -36.89887,-0.34728 z M -198.54878,58.603034 c 0,-48 0,-48 12,-48 12,0 12,0 12,10.5 0,10.5 0,10.5 9.75,10.50755 18.03729,0.014 27.75559,2.77036 32.55396,9.23321 4.70829,6.34152 5.04525,8.68545 5.4643,38.00924 0.39655,27.749986 0.39655,27.749986 -11.68585,27.749986 -12.08241,0 -12.08241,0 -12.10627,-22.249986 -0.0345,-32.1847 -0.65747,-33.75 -13.43194,-33.75 -11.02942,0 -10.5442,-1.37266 -10.5442,29.82874 0,26.171246 0,26.171246 -12,26.171246 -12,0 -12,0 -12,-47.999986 z m 160.000003,23.83191 c 0,-13.29244 0.48087,-26.92943 1.06859,-30.3044 2.1535,-12.3663 7.40592,-17.41482 20.39806,-19.60623 8.7983198,-1.48402 25.4086198,-0.67732 31.86324,1.54749 4.49691,1.55001 5.15187,1.55077 9.5,0.0111 6.92084,-2.45074 24.921219,-3.04741 33.9485,-1.12531 16.91424,3.60139 19.16697,9.51372 19.2018,50.39547 0.01981,23.249996 0.01981,23.249996 -12.48019,23.249996 -12.500001,0 -12.500001,0 -12.500001,-26.344996 0,-30.53427 0.27,-29.65499 -9.10623,-29.65499 -6.6322,0 -9.456659,1.76493 -10.849329,6.77948 -0.57087,2.0555 -1.03578,13.90166 -1.03886,26.47052 -0.0056,22.749986 -0.0056,22.749986 -11.9422,22.749986 -11.9366202,0 -11.9366202,0 -12.2500002,-24.929196 -0.29555,-23.51112 -0.433,-25.08968 -2.41619,-27.75001 -1.87396,-2.51382 -2.80524,-2.85249 -8.55763,-3.11209 -10.5141598,-0.4745 -10.2750798,-1.1447 -10.6642498,29.89452 -0.32469,25.896776 -0.32469,25.896776 -12.25,25.896776 -11.92531,0 -11.92531,0 -11.92531,-24.168076 z"
       id="path1572" />
  </g>
</svg>
